<?xml version="1.0" encoding="utf-8"?>
<svg version="1.1" xmlns:xlink="http://www.w3.org/1999/xlink" width="12px" height="12px" viewBox="68 137.5  12 12" xmlns="http://www.w3.org/2000/svg">
  <path d="M 74 137.5  C 77.36 137.5  80 140.14  80 143.5  C 80 146.86  77.36 149.5  74 149.5  C 70.64 149.5  68 146.86  68 143.5  C 68 140.14  70.64 137.5  74 137.5  Z " fill-rule="nonzero" fill="#f0f0f0" stroke="none" />
  <path d="M 74 138  C 77.08 138  79.5 140.42  79.5 143.5  C 79.5 146.58  77.08 149  74 149  C 70.92 149  68.5 146.58  68.5 143.5  C 68.5 140.42  70.92 138  74 138  Z " stroke-width="1" stroke="#797979" fill="none" />
  <path d="M 74 146.5  C 72.32 146.5  71 145.18  71 143.5  C 71 141.82  72.32 140.5  74 140.5  C 75.68 140.5  77 141.82  77 143.5  C 77 145.18  75.68 146.5  74 146.5  " fill-rule="nonzero" fill="#797979" stroke="none" />
</svg>