<?xml version="1.0" encoding="utf-8"?>
<svg version="1.1" xmlns:xlink="http://www.w3.org/1999/xlink" width="12px" height="12px" viewBox="68 179.5  12 12" xmlns="http://www.w3.org/2000/svg">
  <path d="M 74 179.5  C 77.36 179.5  80 182.14  80 185.5  C 80 188.86  77.36 191.5  74 191.5  C 70.64 191.5  68 188.86  68 185.5  C 68 182.14  70.64 179.5  74 179.5  Z " fill-rule="nonzero" fill="#f0f0f0" stroke="none" />
  <path d="M 74 180  C 77.08 180  79.5 182.42  79.5 185.5  C 79.5 188.58  77.08 191  74 191  C 70.92 191  68.5 188.58  68.5 185.5  C 68.5 182.42  70.92 180  74 180  Z " stroke-width="1" stroke="#797979" fill="none" />
  <path d="M 74 188.5  C 72.32 188.5  71 187.18  71 185.5  C 71 183.82  72.32 182.5  74 182.5  C 75.68 182.5  77 183.82  77 185.5  C 77 187.18  75.68 188.5  74 188.5  " fill-rule="nonzero" fill="#797979" stroke="none" />
</svg>