<?xml version="1.0" encoding="utf-8"?>
<svg version="1.1" xmlns:xlink="http://www.w3.org/1999/xlink" width="12px" height="12px" viewBox="70 145.5  12 12" xmlns="http://www.w3.org/2000/svg">
  <path d="M 76 145.5  C 79.36 145.5  82 148.14  82 151.5  C 82 154.86  79.36 157.5  76 157.5  C 72.64 157.5  70 154.86  70 151.5  C 70 148.14  72.64 145.5  76 145.5  Z " fill-rule="nonzero" fill="#ffffff" stroke="none" />
  <path d="M 76 146  C 79.08 146  81.5 148.42  81.5 151.5  C 81.5 154.58  79.08 157  76 157  C 72.92 157  70.5 154.58  70.5 151.5  C 70.5 148.42  72.92 146  76 146  Z " stroke-width="1" stroke="#797979" fill="none" />
  <path d="M 76 154.5  C 74.32 154.5  73 153.18  73 151.5  C 73 149.82  74.32 148.5  76 148.5  C 77.68 148.5  79 149.82  79 151.5  C 79 153.18  77.68 154.5  76 154.5  " fill-rule="nonzero" fill="#797979" stroke="none" />
</svg>