<?xml version="1.0" encoding="utf-8"?>
<svg version="1.1" xmlns:xlink="http://www.w3.org/1999/xlink" width="20px" height="20px" xmlns="http://www.w3.org/2000/svg">
  <g transform="matrix(1 0 0 1 -31 -330 )">
    <path d="M 13.235677083333332 2.3307291666666674  C 12.20703125 1.8880208333333326  11.128472222222223 1.6666666666666674  10 1.6666666666666674  C 8.871527777777779 1.6666666666666674  7.79296875 1.8880208333333326  6.764322916666666 2.3307291666666674  C 5.735677083333334 2.7734375  4.850260416666667 3.3658854166666674  4.108072916666667 4.108072916666668  C 3.365885416666667 4.850260416666668  2.7734375 5.735677083333332  2.3307291666666665 6.764322916666668  C 1.8880208333333335 7.79296875  1.6666666666666665 8.871527777777777  1.6666666666666665 10  C 1.6666666666666665 11.128472222222223  1.8880208333333335 12.20703125  2.3307291666666665 13.235677083333336  C 2.7734375 14.264322916666664  3.365885416666667 15.149739583333332  4.108072916666667 15.891927083333332  C 4.850260416666667 16.634114583333332  5.735677083333334 17.2265625  6.764322916666666 17.669270833333332  C 7.79296875 18.111979166666668  8.871527777777779 18.333333333333332  10 18.333333333333332  C 11.128472222222223 18.333333333333332  12.20703125 18.111979166666668  13.235677083333332 17.669270833333332  C 14.264322916666668 17.2265625  15.149739583333332 16.634114583333332  15.891927083333332 15.891927083333332  C 16.634114583333332 15.149739583333332  17.2265625 14.264322916666664  17.669270833333332 13.235677083333336  C 18.111979166666668 12.20703125  18.333333333333332 11.128472222222223  18.333333333333332 10  C 18.333333333333332 8.871527777777777  18.111979166666668 7.79296875  17.669270833333332 6.764322916666668  C 17.2265625 5.735677083333332  16.634114583333332 4.850260416666668  15.891927083333332 4.108072916666668  C 15.149739583333332 3.3658854166666674  14.264322916666668 2.7734375  13.235677083333332 2.3307291666666674  Z M 18.658854166666668 4.98046875  C 19.552951388888886 6.512586805555554  20 8.185763888888886  20 10  C 20 11.81423611111111  19.552951388888886 13.487413194444443  18.658854166666668 15.01953125  C 17.764756944444446 16.551649305555557  16.551649305555557 17.764756944444443  15.01953125 18.658854166666668  C 13.487413194444446 19.55295138888889  11.81423611111111 20  10 20  C 8.18576388888889 20  6.512586805555555 19.55295138888889  4.98046875 18.658854166666668  C 3.4483506944444446 17.764756944444443  2.235243055555556 16.551649305555557  1.3411458333333335 15.01953125  C 0.44704861111111105 13.487413194444443  0 11.81423611111111  0 10  C 0 8.185763888888886  0.44704861111111105 6.512586805555554  1.3411458333333335 4.98046875  C 2.235243055555556 3.448350694444444  3.4483506944444446 2.2352430555555536  4.98046875 1.3411458333333326  C 6.512586805555555 0.4470486111111094  8.18576388888889 0  10 0  C 11.81423611111111 0  13.487413194444446 0.4470486111111094  15.01953125 1.3411458333333326  C 16.551649305555557 2.2352430555555536  17.764756944444446 3.448350694444444  18.658854166666668 4.98046875  Z " fill-rule="nonzero" fill="#02a7f0" stroke="none" transform="matrix(1 0 0 1 31 330 )" />
  </g>
</svg>