<?xml version="1.0" encoding="utf-8"?>
<svg version="1.1" xmlns:xlink="http://www.w3.org/1999/xlink" width="16px" height="18px" xmlns="http://www.w3.org/2000/svg">
  <g transform="matrix(1 0 0 1 -295 -235 )">
    <path d="M 15.622895622895623 13.454545454545453  C 15.874298540965208 13.737373737373735  16 14.08080808080808  16 14.484848484848484  C 16 14.888888888888891  15.874298540965208 15.232323232323232  15.622895622895623 15.515151515151514  L 13.79124579124579 17.575757575757574  C 13.539842873176209 17.858585858585858  13.234567901234568 18  12.875420875420875 18  C 12.516273849607185 18  12.210998877665546 17.858585858585858  11.95959595959596 17.575757575757574  L 8 13.121212121212123  L 4.040404040404041 17.575757575757574  C 3.789001122334456 17.858585858585858  3.483726150392817 18  3.1245791245791246 18  C 2.7654320987654324 18  2.460157126823794 17.858585858585858  2.208754208754209 17.575757575757574  L 0.3771043771043771 15.515151515151514  C 0.1257014590347925 15.232323232323232  0 14.888888888888891  0 14.484848484848484  C 0 14.08080808080808  0.1257014590347925 13.737373737373735  0.3771043771043771 13.454545454545453  L 4.3367003367003365 9  L 0.3771043771043771 4.545454545454545  C 0.1257014590347925 4.262626262626261  0 3.9191919191919196  0 3.515151515151515  C 0 3.1111111111111107  0.1257014590347925 2.767676767676765  0.3771043771043771 2.4848484848484853  L 2.208754208754209 0.4242424242424243  C 2.460157126823794 0.14141414141414077  2.7654320987654324 0  3.1245791245791246 0  C 3.483726150392817 0  3.789001122334456 0.14141414141414077  4.040404040404041 0.4242424242424243  L 8 4.87878787878788  L 11.95959595959596 0.4242424242424243  C 12.210998877665546 0.14141414141414077  12.516273849607185 0  12.875420875420875 0  C 13.234567901234568 0  13.539842873176209 0.14141414141414077  13.79124579124579 0.4242424242424243  L 15.622895622895623 2.4848484848484853  C 15.874298540965208 2.767676767676765  16 3.1111111111111107  16 3.515151515151515  C 16 3.9191919191919196  15.874298540965208 4.262626262626261  15.622895622895623 4.545454545454545  L 11.663299663299663 9  L 15.622895622895623 13.454545454545453  Z " fill-rule="nonzero" fill="#000000" stroke="none" transform="matrix(1 0 0 1 295 235 )" />
  </g>
</svg>