<?xml version="1.0" encoding="utf-8"?>
<svg version="1.1" xmlns:xlink="http://www.w3.org/1999/xlink" width="12px" height="12px" viewBox="117 356.5  12 12" xmlns="http://www.w3.org/2000/svg">
  <path d="M 123 356.5  C 126.36 356.5  129 359.14  129 362.5  C 129 365.86  126.36 368.5  123 368.5  C 119.64 368.5  117 365.86  117 362.5  C 117 359.14  119.64 356.5  123 356.5  Z " fill-rule="nonzero" fill="#ffffff" stroke="none" />
  <path d="M 123 357  C 126.08 357  128.5 359.42  128.5 362.5  C 128.5 365.58  126.08 368  123 368  C 119.92 368  117.5 365.58  117.5 362.5  C 117.5 359.42  119.92 357  123 357  Z " stroke-width="1" stroke="#02a7f0" fill="none" />
  <path d="M 123 365.5  C 121.32 365.5  120 364.18  120 362.5  C 120 360.82  121.32 359.5  123 359.5  C 124.68 359.5  126 360.82  126 362.5  C 126 364.18  124.68 365.5  123 365.5  " fill-rule="nonzero" fill="#02a7f0" stroke="none" />
</svg>