<?xml version="1.0" encoding="utf-8"?>
<svg version="1.1" xmlns:xlink="http://www.w3.org/1999/xlink" width="12px" height="12px" viewBox="188 356.5  12 12" xmlns="http://www.w3.org/2000/svg">
  <path d="M 194 356.5  C 197.36 356.5  200 359.14  200 362.5  C 200 365.86  197.36 368.5  194 368.5  C 190.64 368.5  188 365.86  188 362.5  C 188 359.14  190.64 356.5  194 356.5  Z " fill-rule="nonzero" fill="#ffffff" stroke="none" />
  <path d="M 194 357  C 197.08 357  199.5 359.42  199.5 362.5  C 199.5 365.58  197.08 368  194 368  C 190.92 368  188.5 365.58  188.5 362.5  C 188.5 359.42  190.92 357  194 357  Z " stroke-width="1" stroke="#02a7f0" fill="none" />
  <path d="M 194 365.5  C 192.32 365.5  191 364.18  191 362.5  C 191 360.82  192.32 359.5  194 359.5  C 195.68 359.5  197 360.82  197 362.5  C 197 364.18  195.68 365.5  194 365.5  " fill-rule="nonzero" fill="#02a7f0" stroke="none" />
</svg>