<?xml version="1.0" encoding="utf-8"?>
<svg version="1.1" xmlns:xlink="http://www.w3.org/1999/xlink" width="12px" height="12px" viewBox="47 356.5  12 12" xmlns="http://www.w3.org/2000/svg">
  <path d="M 53 356.5  C 56.36 356.5  59 359.14  59 362.5  C 59 365.86  56.36 368.5  53 368.5  C 49.64 368.5  47 365.86  47 362.5  C 47 359.14  49.64 356.5  53 356.5  Z " fill-rule="nonzero" fill="#f0f0f0" stroke="none" />
  <path d="M 53 357  C 56.08 357  58.5 359.42  58.5 362.5  C 58.5 365.58  56.08 368  53 368  C 49.92 368  47.5 365.58  47.5 362.5  C 47.5 359.42  49.92 357  53 357  Z " stroke-width="1" stroke="#02a7f0" fill="none" />
  <path d="M 53 365.5  C 51.32 365.5  50 364.18  50 362.5  C 50 360.82  51.32 359.5  53 359.5  C 54.68 359.5  56 360.82  56 362.5  C 56 364.18  54.68 365.5  53 365.5  " fill-rule="nonzero" fill="#02a7f0" stroke="none" />
</svg>