<?xml version="1.0" encoding="utf-8"?>
<svg version="1.1" xmlns:xlink="http://www.w3.org/1999/xlink" width="62px" height="62px" xmlns="http://www.w3.org/2000/svg">
  <g transform="matrix(1 0 0 1 -108 -283 )">
    <path d="M 139 284  C 155.8 284  169 297.2  169 314  C 169 330.8  155.8 344  139 344  C 122.2 344  109 330.8  109 314  C 109 297.2  122.2 284  139 284  Z " fill-rule="nonzero" fill="#ffffff" stroke="none" fill-opacity="0" />
    <path d="M 139 284  C 155.8 284  169 297.2  169 314  C 169 330.8  155.8 344  139 344  C 122.2 344  109 330.8  109 314  C 109 297.2  122.2 284  139 284  Z " stroke-width="2" stroke="#000000" fill="none" />
  </g>
</svg>