<?xml version="1.0" encoding="utf-8"?>
<svg version="1.1" xmlns:xlink="http://www.w3.org/1999/xlink" width="12px" height="12px" viewBox="81 337.5  12 12" xmlns="http://www.w3.org/2000/svg">
  <path d="M 87 337.5  C 90.36 337.5  93 340.14  93 343.5  C 93 346.86  90.36 349.5  87 349.5  C 83.64 349.5  81 346.86  81 343.5  C 81 340.14  83.64 337.5  87 337.5  Z " fill-rule="nonzero" fill="#ffffff" stroke="none" />
  <path d="M 87 338  C 90.08 338  92.5 340.42  92.5 343.5  C 92.5 346.58  90.08 349  87 349  C 83.92 349  81.5 346.58  81.5 343.5  C 81.5 340.42  83.92 338  87 338  Z " stroke-width="1" stroke="#02a7f0" fill="none" />
  <path d="M 87 346.5  C 85.32 346.5  84 345.18  84 343.5  C 84 341.82  85.32 340.5  87 340.5  C 88.68 340.5  90 341.82  90 343.5  C 90 345.18  88.68 346.5  87 346.5  " fill-rule="nonzero" fill="#02a7f0" stroke="none" />
</svg>