<?xml version="1.0" encoding="utf-8"?>
<svg version="1.1" xmlns:xlink="http://www.w3.org/1999/xlink" width="12px" height="12px" viewBox="131 337.5  12 12" xmlns="http://www.w3.org/2000/svg">
  <path d="M 137 337.5  C 140.36 337.5  143 340.14  143 343.5  C 143 346.86  140.36 349.5  137 349.5  C 133.64 349.5  131 346.86  131 343.5  C 131 340.14  133.64 337.5  137 337.5  Z " fill-rule="nonzero" fill="#f0f0f0" stroke="none" />
  <path d="M 137 338  C 140.08 338  142.5 340.42  142.5 343.5  C 142.5 346.58  140.08 349  137 349  C 133.92 349  131.5 346.58  131.5 343.5  C 131.5 340.42  133.92 338  137 338  Z " stroke-width="1" stroke="#02a7f0" fill="none" />
  <path d="M 137 346.5  C 135.32 346.5  134 345.18  134 343.5  C 134 341.82  135.32 340.5  137 340.5  C 138.68 340.5  140 341.82  140 343.5  C 140 345.18  138.68 346.5  137 346.5  " fill-rule="nonzero" fill="#02a7f0" stroke="none" />
</svg>