<?xml version="1.0" encoding="utf-8"?>
<svg version="1.1" xmlns:xlink="http://www.w3.org/1999/xlink" width="304px" height="180px" xmlns="http://www.w3.org/2000/svg">
  <defs>
    <filter x="38px" y="135px" width="304px" height="180px" filterUnits="userSpaceOnUse" id="filter88">
      <feOffset dx="5" dy="5" in="SourceAlpha" result="shadowOffsetInner" />
      <feGaussianBlur stdDeviation="2.5" in="shadowOffsetInner" result="shadowGaussian" />
      <feComposite in2="shadowGaussian" operator="atop" in="SourceAlpha" result="shadowComposite" />
      <feColorMatrix type="matrix" values="0 0 0 0 0  0 0 0 0 0  0 0 0 0 0  0 0 0 0.34901960784313724 0  " in="shadowComposite" />
    </filter>
    <g id="widget89">
      <path d="M 39.5 145  A 8.5 8.5 0 0 1 48 136.5 L 322 136.5  A 8.5 8.5 0 0 1 330.5 145 L 330.5 295  A 8.5 8.5 0 0 1 322 303.5 L 48 303.5  A 8.5 8.5 0 0 1 39.5 295 L 39.5 145  Z " fill-rule="nonzero" fill="#ffffff" stroke="none" fill-opacity="0.996078431372549" />
      <path d="M 39 145  A 9 9 0 0 1 48 136 L 322 136  A 9 9 0 0 1 331 145 L 331 295  A 9 9 0 0 1 322 304 L 48 304  A 9 9 0 0 1 39 295 L 39 145  Z " stroke-width="2" stroke="#000000" fill="none" />
    </g>
  </defs>
  <g transform="matrix(1 0 0 1 -38 -135 )">
    <use xlink:href="#widget89" filter="url(#filter88)" />
    <use xlink:href="#widget89" />
  </g>
</svg>