<?xml version="1.0" encoding="utf-8"?>
<svg version="1.1" xmlns:xlink="http://www.w3.org/1999/xlink" width="300px" height="400px" xmlns="http://www.w3.org/2000/svg">
  <g transform="matrix(1 0 0 1 -25 -156 )">
    <path d="M 25 156  L 325 156  L 325 556  L 25 556  L 25 156  " fill-rule="nonzero" fill="#cccccc" stroke="none" />
    <path d="M 46 177  L 304 177  L 304 535  L 46 535  L 46 177  " fill-rule="nonzero" fill="#ffffff" stroke="none" />
    <path d="M 203.5 261  C 190.9 261  181 251.1  181 238.5  C 181 225.9  190.9 216  203.5 216  C 216.1 216  226 225.9  226 238.5  C 226 251.1  216.1 261  203.5 261  " fill-rule="nonzero" fill="#cccccc" stroke="none" />
    <path d="M 54 528  L 54 339.35  L 114.75 253.59999999999997  L 199.79999999999998 322.20000000000005  L 248.4 305.04999999999995  L 297 322.20000000000005  L 297 528  L 54 528  " fill-rule="nonzero" fill="#169bd5" stroke="none" />
  </g>
</svg>