<?xml version="1.0" encoding="utf-8"?>
<svg version="1.1" xmlns:xlink="http://www.w3.org/1999/xlink" width="25px" height="14px" xmlns="http://www.w3.org/2000/svg">
  <g transform="matrix(1 0 0 1 -288 -28 )">
    <path d="M 2.7777777777777777 3  L 20.833333333333336 3  L 20.833333333333336 11  L 2.7777777777777777 11  L 2.7777777777777777 3  Z M 22.22222222222222 12.25  L 22.22222222222222 9.1  L 23.61111111111111 9.1  L 23.61111111111111 4.8999999999999995  L 22.22222222222222 4.8999999999999995  L 22.22222222222222 1.75  C 22.22222222222222 1.6479166666666647  22.18967013888889 1.5640624999999997  22.12456597222222 1.4984375000000003  C 22.059461805555554 1.4328124999999994  21.976273148148152 1.3999999999999997  21.875 1.3999999999999997  L 1.7361111111111112 1.3999999999999997  C 1.6348379629629632 1.3999999999999997  1.5516493055555556 1.4328124999999994  1.4865451388888888 1.4984375000000003  C 1.421440972222222 1.5640624999999997  1.3888888888888888 1.6479166666666647  1.3888888888888888 1.75  L 1.3888888888888888 12.25  C 1.3888888888888888 12.352083333333333  1.421440972222222 12.4359375  1.4865451388888888 12.5015625  C 1.5516493055555556 12.567187500000001  1.6348379629629632 12.6  1.7361111111111112 12.6  L 21.875 12.6  C 21.976273148148152 12.6  22.059461805555554 12.567187500000001  22.12456597222222 12.5015625  C 22.18967013888889 12.4359375  22.22222222222222 12.352083333333333  22.22222222222222 12.25  Z M 24.593098958333336 3.91015625  C 24.864366319444446 4.183593749999998  25 4.513541666666665  25 4.8999999999999995  L 25 9.1  C 25 9.486458333333331  24.864366319444446 9.81640625  24.593098958333336 10.08984375  C 24.32183159722222 10.36328125  23.994502314814817 10.5  23.61111111111111 10.5  L 23.61111111111111 12.25  C 23.61111111111111 12.731250000000001  23.441116898148152 13.143229166666668  23.10112847222222 13.4859375  C 22.761140046296298 13.828645833333333  22.352430555555554 14  21.875 14  L 1.7361111111111112 14  C 1.2586805555555556 14  0.8499710648148149 13.828645833333333  0.509982638888889 13.4859375  C 0.16999421296296297 13.143229166666668  0 12.731250000000001  0 12.25  L 0 1.75  C 0 1.2687499999999994  0.16999421296296297 0.8567708333333328  0.509982638888889 0.5140625000000003  C 0.8499710648148149 0.1713541666666647  1.2586805555555556 0  1.7361111111111112 0  L 21.875 0  C 22.352430555555554 0  22.761140046296298 0.1713541666666647  23.10112847222222 0.5140625000000003  C 23.441116898148152 0.8567708333333328  23.61111111111111 1.2687499999999994  23.61111111111111 1.75  L 23.61111111111111 3.5  C 23.994502314814817 3.4999999999999982  24.32183159722222 3.6367187499999982  24.593098958333336 3.91015625  Z " fill-rule="nonzero" fill="#000000" stroke="none" transform="matrix(1 0 0 1 288 28 )" />
  </g>
</svg>