<?xml version="1.0" encoding="utf-8"?>
<svg version="1.1" xmlns:xlink="http://www.w3.org/1999/xlink" width="25px" height="20px" xmlns="http://www.w3.org/2000/svg">
  <g transform="matrix(1 0 0 1 -79 -23 )">
    <path d="M 3.4458705357142856 16.783854166666668  C 3.5295758928571432 16.861979166666668  3.571428571428571 16.961805555555557  3.571428571428571 17.083333333333332  L 3.571428571428571 19.583333333333332  C 3.571428571428571 19.70486111111111  3.5295758928571432 19.8046875  3.4458705357142856 19.8828125  C 3.362165178571429 19.9609375  3.2552083333333335 20  3.125 20  L 0.4464285714285714 20  C 0.3162202380952381 20  0.2092633928571429 19.9609375  0.12555803571428573 19.8828125  C 0.04185267857142857 19.8046875  0 19.70486111111111  0 19.583333333333332  L 0 17.083333333333332  C 0 16.961805555555557  0.04185267857142857 16.861979166666668  0.12555803571428573 16.783854166666668  C 0.2092633928571429 16.705729166666668  0.3162202380952381 16.666666666666668  0.4464285714285714 16.666666666666668  L 3.125 16.666666666666668  C 3.2552083333333335 16.666666666666668  3.362165178571429 16.705729166666668  3.4458705357142856 16.783854166666668  Z M 8.803013392857142 15.1171875  C 8.88671875 15.1953125  8.928571428571429 15.295138888888891  8.928571428571429 15.416666666666668  L 8.928571428571429 19.583333333333332  C 8.928571428571429 19.70486111111111  8.88671875 19.8046875  8.803013392857142 19.8828125  C 8.719308035714286 19.9609375  8.61235119047619 20  8.482142857142858 20  L 5.803571428571429 20  C 5.673363095238097 20  5.566406250000001 19.9609375  5.482700892857143 19.8828125  C 5.398995535714286 19.8046875  5.357142857142857 19.70486111111111  5.357142857142857 19.583333333333332  L 5.357142857142857 15.416666666666668  C 5.357142857142857 15.295138888888891  5.398995535714286 15.1953125  5.482700892857143 15.1171875  C 5.566406250000001 15.0390625  5.673363095238097 15  5.803571428571429 15  L 8.482142857142858 15  C 8.61235119047619 15  8.719308035714286 15.0390625  8.803013392857142 15.1171875  Z M 14.16015625 11.783854166666664  C 14.243861607142858 11.861979166666664  14.285714285714285 11.961805555555554  14.285714285714285 12.083333333333336  L 14.285714285714285 19.583333333333332  C 14.285714285714285 19.70486111111111  14.243861607142858 19.8046875  14.16015625 19.8828125  C 14.076450892857142 19.9609375  13.96949404761905 20  13.839285714285715 20  L 11.160714285714286 20  C 11.030505952380953 20  10.92354910714286 19.9609375  10.83984375 19.8828125  C 10.756138392857142 19.8046875  10.714285714285714 19.70486111111111  10.714285714285714 19.583333333333332  L 10.714285714285714 12.083333333333336  C 10.714285714285714 11.961805555555554  10.756138392857142 11.861979166666664  10.83984375 11.783854166666664  C 10.92354910714286 11.705729166666664  11.030505952380953 11.666666666666664  11.160714285714286 11.666666666666664  L 13.839285714285715 11.666666666666664  C 13.96949404761905 11.666666666666664  14.076450892857142 11.705729166666664  14.16015625 11.783854166666664  Z M 19.517299107142858 6.783854166666668  C 19.601004464285715 6.861979166666668  19.642857142857142 6.961805555555555  19.642857142857142 7.083333333333332  L 19.642857142857142 19.583333333333332  C 19.642857142857142 19.70486111111111  19.601004464285715 19.8046875  19.517299107142858 19.8828125  C 19.43359375 19.9609375  19.326636904761905 20  19.196428571428573 20  L 16.517857142857142 20  C 16.38764880952381 20  16.280691964285715 19.9609375  16.196986607142858 19.8828125  C 16.11328125 19.8046875  16.071428571428573 19.70486111111111  16 19.583333333333332  L 16 7.083333333333332  C 16.071428571428573 6.961805555555555  16.11328125 6.861979166666668  16.196986607142858 6.783854166666668  C 16.280691964285715 6.705729166666668  16.38764880952381 6.666666666666668  16.517857142857142 6.666666666666668  L 19.196428571428573 6.666666666666668  C 19.326636904761905 6.666666666666668  19.43359375 6.705729166666668  19.517299107142858 6.783854166666668  Z M 24.874441964285715 0.1171875  C 24.958147321428573 0.1953125  25 0.2951388888888862  25 0.4166666666666674  L 25 19.583333333333332  C 25 19.70486111111111  24.958147321428573 19.8046875  24.874441964285715 19.8828125  C 24.790736607142858 19.9609375  24.683779761904763 20  24.553571428571427 20  L 21.875 20  C 21.74479166666667 20  21.637834821428577 19.9609375  21.554129464285715 19.8828125  C 21.470424107142858 19.8046875  21.428571428571427 19.70486111111111  21 19.583333333333332  L 21 0.4166666666666674  C 21.428571428571427 0.2951388888888862  21.470424107142858 0.1953125  21.554129464285715 0.1171875  C 21.637834821428577 0.0390625  21.74479166666667 0  21.875 0  L 24.553571428571427 0  C 24.683779761904763 0  24.790736607142858 0.0390625  24.874441964285715 0.1171875  Z " fill-rule="nonzero" fill="#000000" stroke="none" transform="matrix(1 0 0 1 79 23 )" />
  </g>
</svg>