<?xml version="1.0" encoding="utf-8"?>
<svg version="1.1" xmlns:xlink="http://www.w3.org/1999/xlink" width="22px" height="18px" xmlns="http://www.w3.org/2000/svg">
  <g transform="matrix(1 0 0 1 -230 -25 )">
    <path d="M 12.041751527494908 17.051612903225806  C 11.496605566870334 17.683870967741935  11.149355057705364 18  11 18  C 10.850644942294638 18  10.503394433129667 17.683870967741935  9.958248472505092 17.051612903225806  C 9.413102511880517 16.419354838709676  9.140529531568228 16.017204301075267  9.140529531568228 15.845161290322581  C 9.140529531568228 15.569892473118282  9.37389680923286 15.337634408602153  9.840631364562118 15.148387096774194  C 10.307365919891378 14.959139784946236  10.693822131704007 14.864516129032259  11 14.864516129032259  C 11.306177868295997 14.864516129032259  11.692634080108622 14.959139784946236  12.159368635437882 15.148387096774194  C 12.626103190767143 15.337634408602153  12.859470468431772 15.569892473118282  12.859470468431772 15.845161290322581  C 12.859470468431772 16.017204301075267  12.586897488119485 16.419354838709676  12.041751527494908 17.051612903225806  Z M 15.071792260692465 13.535483870967743  C 14.50797691785472 14.180645161290322  14.158859470468432 14.503225806451614  14.024439918533606 14.503225806451614  C 14.00950441276307 14.503225806451614  13.860149355057706 14.39569892473118  13.576374745417516 14.180645161290322  C 13.292600135777326 13.965591397849462  12.913611676849968 13.7505376344086  12.439409368635438 13.535483870967743  C 11.96520706042091 13.320430107526883  11.485403937542433 13.212903225806452  11 13.212903225806452  C 10.51459606245757 13.212903225806452  10.03479293957909 13.320430107526883  9.560590631364562 13.535483870967743  C 9.086388323150034 13.7505376344086  8.709266802443992 13.965591397849462  8.429226069246436 14.180645161290322  C 8.14918533604888 14.39569892473118  7.997963340122199 14.503225806451614  7.975560081466394 14.503225806451614  C 7.841140529531568 14.503225806451614  7.492023082145282 14.180645161290322  6.928207739307536 13.535483870967743  C 6.36439239646979 12.89032258064516  6.082484725050916 12.490322580645161  6.082484725050916 12.335483870967742  C 6.082484725050916 12.223655913978494  6.119823489477258 12.124731182795696  6.194501018329939 12.038709677419355  C 6.776985743380855 11.376344086021506  7.508825526137136 10.855913978494621  8.390020366598778 10.47741935483871  C 9.271215207060422 10.098924731182795  10.141208418194163 9.90967741935484  11 9.90967741935484  C 11.858791581805841 9.90967741935484  12.72878479293958 10.098924731182795  13.60997963340122 10.47741935483871  C 14.491174473862865 10.855913978494621  15.223014256619145 11.376344086021506  15.80549898167006 12.038709677419355  C 15.880176510522743 12.124731182795696  15.917515274949084 12.223655913978494  15.917515274949084 12.335483870967742  C 15.917515274949084 12.490322580645161  15.635607603530213 12.89032258064516  15.071792260692465 13.535483870967743  Z M 18.113034623217924 10.025806451612903  C 17.552953156822813 10.670967741935485  17.209436524100475 10.993548387096777  17.082484725050914 10.993548387096777  C 17.000339443312967 10.993548387096777  16.914460285132385 10.959139784946235  16.824847250509166 10.890322580645162  C 15.809232858112697 9.987096774193548  14.868295994568909 9.322580645161292  14.002036659877799 8.896774193548389  C 13.135777325186694 8.470967741935484  12.135098438560762 8.258064516129032  11 8.258064516129032  C 10.365241004752209 8.258064516129032  9.728615071283098 8.352688172043012  9.090122199592669 8.541935483870969  C 8.45162932790224 8.731182795698924  7.8952817379497615 8.959139784946235  7.421079429735235 9.225806451612904  C 6.946877121520707 9.49247311827957  6.523082145281738 9.759139784946235  6.14969450101833 10.025806451612903  C 5.776306856754923 10.292473118279569  5.48133061778683 10.520430107526881  5.2647657841140525 10.70967741935484  C 5.048200950441277 10.898924731182795  4.93245078071962 10.993548387096777  4.917515274949084 10.993548387096777  C 4.790563475899525 10.993548387096777  4.447046843177189 10.670967741935485  3.8869653767820775 10.025806451612903  C 3.326883910386966 9.380645161290323  3.0468431771894093 8.980645161290322  3.0468431771894093 8.825806451612904  C 3.0468431771894093 8.72258064516129  3.0841819416157503 8.627956989247311  3.158859470468432 8.541935483870969  C 4.144602851323829 7.406451612903225  5.339443312966735 6.524731182795699  6.743380855397148 5.896774193548387  C 8.147318397827563 5.268817204301074  9.566191446028514 4.95483870967742  11 4.95483870967742  C 12.433808553971488 4.95483870967742  13.852681602172439 5.268817204301074  15.256619144602851 5.896774193548387  C 16.660556687033267 6.524731182795699  17.85539714867617 7.406451612903225  18.841140529531568 8.541935483870969  C 18.915818058384254 8.627956989247311  18.953156822810595 8.72258064516129  18.95315682281059 8.825806451612904  C 18.953156822810595 8.980645161290322  18.673116089613035 9.380645161290323  18.113034623217924 10.025806451612903  Z M 21.15427698574338 6.529032258064516  C 20.590461642905634 7.174193548387097  20.245078071961984 7.4967741935483865  20.118126272912424 7.4967741935483865  C 20.035980991174476 7.4967741935483865  19.953835709436525 7.458064516129033  19.871690427698574 7.380645161290322  C 18.534962661235575 6.03010752688172  17.147827562797016 5.0129032258064505  15.710285132382893 4.329032258064516  C 14.272742701968772 3.64516129032258  12.70264765784114 3.303225806451613  11 3.303225806451613  C 9.29735234215886 3.303225806451613  7.727257298031229 3.64516129032258  6.289714867617108 4.329032258064516  C 4.852172437202988 5.0129032258064505  3.4650373387644264 6.03010752688172  2.1283095723014256 7.380645161290322  C 2.046164290563476 7.458064516129033  1.9640190088255265 7.4967741935483865  1.8818737270875763 7.4967741935483865  C 1.754921928038018 7.4967741935483865  1.4095383570943651 7.174193548387097  0.8457230142566191 6.529032258064516  C 0.2819076714188731 5.883870967741936  0 5.483870967741935  0 5.329032258064517  C 0 5.2172043010752684  0.03733876442634083 5.118279569892472  0.1120162932790224 5.032258064516128  C 1.5084860828241686 3.4322580645161285  3.1700610997963343 2.193548387096775  5.096741344195519 1.3161290322580645  C 7.0234215885947044 0.4387096774193542  8.991174473862865 0  11 0  C 13.008825526137137 0  14.976578411405296 0.4387096774193542  16.90325865580448 1.3161290322580645  C 18.82993890020367 2.193548387096775  20.491513917175833 3.4322580645161285  21.887983706720977 5.032258064516128  C 21.96266123557366 5.118279569892472  22 5.2172043010752684  22 5.329032258064517  C 22 5.483870967741935  21.71809232858113 5.883870967741936  21.15427698574338 6.529032258064516  Z " fill-rule="nonzero" fill="#000000" stroke="none" transform="matrix(1 0 0 1 230 25 )" />
  </g>
</svg>