<?xml version="1.0" encoding="utf-8"?>
<svg version="1.1" xmlns:xlink="http://www.w3.org/1999/xlink" width="15px" height="20px" xmlns="http://www.w3.org/2000/svg">
  <g transform="matrix(1 0 0 1 -37 -530 )">
    <path d="M 44.5 549.0369284683536  C 41.7 544.4073405959099  37.5 541.6295878724437  37.5 537  C 37.5 534.5857142857143  38.9 530.5  44.5 530.5  C 50.1 530.5  51.5 534.5857142857143  51.5 537  C 51.5 541.6295878724437  47.3 544.4073405959099  44.5 549.0369284683536  Z " fill-rule="nonzero" fill="#00c2ff" stroke="none" />
    <path d="M 44.5 550  C 41.5 545  37 542  37 537  C 37 534.4  38.5 530  44.5 530  C 50.5 530  52 534.4  52 537  C 52 542  47.5 545  44.5 550  Z M 44.5 548.0738569367072  C 47.1 543.8146811918198  51 541.2591757448873  51 537  C 51 534.7714285714286  49.7 531  44.5 531  C 39.3 531  38 534.7714285714286  38 537  C 38 541.2591757448873  41.9 543.8146811918198  44.5 548.0738569367072  Z " fill-rule="nonzero" fill="#000000" stroke="none" />
  </g>
</svg>