<?xml version="1.0" encoding="utf-8"?>
<svg version="1.1" xmlns:xlink="http://www.w3.org/1999/xlink" width="15px" height="20px" xmlns="http://www.w3.org/2000/svg">
  <g transform="matrix(1 0 0 1 -212 -530 )">
    <path d="M 219.5 549.0369284683536  C 216.7 544.4073405959099  212.5 541.6295878724437  212.5 537  C 212.5 534.5857142857143  213.9 530.5  219.5 530.5  C 225.1 530.5  226.5 534.5857142857143  226.5 537  C 226.5 541.6295878724437  222.3 544.4073405959099  219.5 549.0369284683536  Z " fill-rule="nonzero" fill="#ffffff" stroke="none" />
    <path d="M 219.5 550  C 216.5 545  212 542  212 537  C 212 534.4  213.5 530  219.5 530  C 225.5 530  227 534.4  227 537  C 227 542  222.5 545  219.5 550  Z M 219.5 548.0738569367072  C 222.1 543.8146811918198  226 541.2591757448873  226 537  C 226 534.7714285714286  224.7 531  219.5 531  C 214.3 531  213 534.7714285714286  213 537  C 213 541.2591757448873  216.9 543.8146811918198  219.5 548.0738569367072  Z " fill-rule="nonzero" fill="#000000" stroke="none" />
  </g>
</svg>