<?xml version="1.0" encoding="utf-8"?>
<svg version="1.1" xmlns:xlink="http://www.w3.org/1999/xlink" width="13px" height="13px" xmlns="http://www.w3.org/2000/svg">
  <g transform="matrix(1 0 0 1 -51 -360 )">
    <path d="M 8.603190104166666 1.514973958333334  C 7.9345703125 1.227213541666666  7.233506944444445 1.083333333333334  6.5 1.083333333333334  C 5.766493055555555 1.083333333333334  5.0654296875 1.227213541666666  4.396809895833333 1.514973958333334  C 3.728190104166667 1.802734375  3.1526692708333335 2.187825520833334  2.6702473958333335 2.670247395833334  C 2.1878255208333335 3.152669270833334  1.802734375 3.728190104166666  1.5149739583333333 4.396809895833334  C 1.2272135416666667 5.0654296875  1.0833333333333333 5.766493055555555  1.0833333333333333 6.5  C 1.0833333333333333 7.233506944444445  1.2272135416666667 7.9345703125  1.5149739583333333 8.603190104166668  C 1.802734375 9.271809895833332  2.1878255208333335 9.847330729166666  2.6702473958333335 10.329752604166666  C 3.1526692708333335 10.812174479166666  3.728190104166667 11.197265625  4.396809895833333 11.485026041666666  C 5.0654296875 11.772786458333334  5.766493055555555 11.916666666666666  6.5 11.916666666666666  C 7.233506944444445 11.916666666666666  7.9345703125 11.772786458333334  8.603190104166666 11.485026041666666  C 9.271809895833334 11.197265625  9.847330729166666 10.812174479166666  10.329752604166666 10.329752604166666  C 10.812174479166666 9.847330729166666  11.197265625 9.271809895833332  11.485026041666666 8.603190104166668  C 11.772786458333334 7.9345703125  11.916666666666666 7.233506944444445  11.916666666666666 6.5  C 11.916666666666666 5.766493055555555  11.772786458333334 5.0654296875  11.485026041666666 4.396809895833334  C 11.197265625 3.728190104166666  10.812174479166666 3.152669270833334  10.329752604166666 2.670247395833334  C 9.847330729166666 2.187825520833334  9.271809895833334 1.802734375  8.603190104166666 1.514973958333334  Z M 12.128255208333334 3.2373046875  C 12.709418402777777 4.23318142361111  13 5.320746527777776  13 6.5  C 13 7.679253472222222  12.709418402777777 8.766818576388888  12.128255208333334 9.7626953125  C 11.54709201388889 10.75857204861111  10.75857204861111 11.54709201388889  9.7626953125 12.128255208333334  C 8.76681857638889 12.709418402777779  7.679253472222222 13  6.5 13  C 5.320746527777779 13  4.233181423611112 12.709418402777779  3.2373046875 12.128255208333334  C 2.2414279513888893 11.54709201388889  1.4529079861111112 10.75857204861111  0.8717447916666667 9.7626953125  C 0.2905815972222222 8.766818576388888  0 7.679253472222222  0 6.5  C 0 5.320746527777776  0.2905815972222222 4.23318142361111  0.8717447916666667 3.2373046875  C 1.4529079861111112 2.241427951388889  2.2414279513888893 1.4529079861111098  3.2373046875 0.8717447916666662  C 4.233181423611112 0.2905815972222211  5.320746527777779 0  6.5 0  C 7.679253472222222 0  8.76681857638889 0.2905815972222211  9.7626953125 0.8717447916666662  C 10.75857204861111 1.4529079861111098  11.54709201388889 2.241427951388889  12.128255208333334 3.2373046875  Z " fill-rule="nonzero" fill="#02a7f0" stroke="none" transform="matrix(1 0 0 1 51 360 )" />
  </g>
</svg>