<?xml version="1.0" encoding="utf-8"?>
<svg version="1.1" xmlns:xlink="http://www.w3.org/1999/xlink" width="20px" height="22px" xmlns="http://www.w3.org/2000/svg">
  <g transform="matrix(1 0 0 1 -309 -233 )">
    <path d="M 19.52861952861953 16.444444444444443  C 19.84287317620651 16.79012345679012  20 17.209876543209873  20 17.703703703703702  C 20 18.19753086419753  19.84287317620651 18.61728395061728  19.52861952861953 18.962962962962962  L 17.23905723905724 21.48148148148148  C 16.924803591470262 21.82716049382716  16.54320987654321 22  16.094276094276093 22  C 15.645342312008982 22  15.263748597081932 21.82716049382716  14.94949494949495 21.48148148148148  L 10 16.037037037037038  L 5.050505050505051 21.48148148148148  C 4.73625140291807 21.82716049382716  4.354657687991022 22  3.9057239057239057 22  C 3.4567901234567904 22  3.0751964085297425 21.82716049382716  2.7609427609427613 21.48148148148148  L 0.4713804713804714 18.962962962962962  C 0.1571268237934906 18.61728395061728  0 18.19753086419753  0 17.703703703703702  C 0 17.209876543209873  0.1571268237934906 16.79012345679012  0.4713804713804714 16.444444444444443  L 5.42087542087542 11  L 0.4713804713804714 5.5555555555555545  C 0.1571268237934906 5.209876543209875  0 4.790123456790123  0 4.296296296296296  C 0 3.802469135802469  0.1571268237934906 3.382716049382713  0.4713804713804714 3.037037037037038  L 2.7609427609427613 0.5185185185185186  C 3.0751964085297425 0.17283950617283872  3.4567901234567904 0  3.9057239057239057 0  C 4.354657687991022 0  4.73625140291807 0.17283950617283872  5.050505050505051 0.5185185185185186  L 10 5.962962962962964  L 14.94949494949495 0.5185185185185186  C 15.263748597081932 0.17283950617283872  15.645342312008982 0  16.094276094276093 0  C 16.54320987654321 0  16.924803591470262 0.17283950617283872  17.23905723905724 0.5185185185185186  L 19.52861952861953 3.037037037037038  C 19.84287317620651 3.382716049382713  20 3.802469135802469  20 4.296296296296296  C 20 4.790123456790123  19.84287317620651 5.209876543209875  19.52861952861953 5.5555555555555545  L 14.579124579124578 11  L 19.52861952861953 16.444444444444443  Z " fill-rule="nonzero" fill="#000000" stroke="none" transform="matrix(1 0 0 1 309 233 )" />
  </g>
</svg>