<?xml version="1.0" encoding="utf-8"?>
<svg version="1.1" xmlns:xlink="http://www.w3.org/1999/xlink" width="12px" height="12px" viewBox="149 222.5  12 12" xmlns="http://www.w3.org/2000/svg">
  <path d="M 155 222.5  C 158.36 222.5  161 225.14  161 228.5  C 161 231.86  158.36 234.5  155 234.5  C 151.64 234.5  149 231.86  149 228.5  C 149 225.14  151.64 222.5  155 222.5  Z " fill-rule="nonzero" fill="#f0f0f0" stroke="none" />
  <path d="M 155 223  C 158.08 223  160.5 225.42  160.5 228.5  C 160.5 231.58  158.08 234  155 234  C 151.92 234  149.5 231.58  149.5 228.5  C 149.5 225.42  151.92 223  155 223  Z " stroke-width="1" stroke="#02a7f0" fill="none" />
  <path d="M 155 231.5  C 153.32 231.5  152 230.18  152 228.5  C 152 226.82  153.32 225.5  155 225.5  C 156.68 225.5  158 226.82  158 228.5  C 158 230.18  156.68 231.5  155 231.5  " fill-rule="nonzero" fill="#02a7f0" stroke="none" />
</svg>