<?xml version="1.0" encoding="utf-8"?>
<svg version="1.1" xmlns:xlink="http://www.w3.org/1999/xlink" width="12px" height="12px" viewBox="230 222.5  12 12" xmlns="http://www.w3.org/2000/svg">
  <path d="M 236 222.5  C 239.36 222.5  242 225.14  242 228.5  C 242 231.86  239.36 234.5  236 234.5  C 232.64 234.5  230 231.86  230 228.5  C 230 225.14  232.64 222.5  236 222.5  Z " fill-rule="nonzero" fill="#ffffff" stroke="none" />
  <path d="M 236 223  C 239.08 223  241.5 225.42  241.5 228.5  C 241.5 231.58  239.08 234  236 234  C 232.92 234  230.5 231.58  230.5 228.5  C 230.5 225.42  232.92 223  236 223  Z " stroke-width="1" stroke="#02a7f0" fill="none" />
  <path d="M 236 231.5  C 234.32 231.5  233 230.18  233 228.5  C 233 226.82  234.32 225.5  236 225.5  C 237.68 225.5  239 226.82  239 228.5  C 239 230.18  237.68 231.5  236 231.5  " fill-rule="nonzero" fill="#02a7f0" stroke="none" />
</svg>