<?xml version="1.0" encoding="utf-8"?>
<svg version="1.1" xmlns:xlink="http://www.w3.org/1999/xlink" width="12px" height="12px" viewBox="59 222.5  12 12" xmlns="http://www.w3.org/2000/svg">
  <path d="M 65 222.5  C 68.36 222.5  71 225.14  71 228.5  C 71 231.86  68.36 234.5  65 234.5  C 61.64 234.5  59 231.86  59 228.5  C 59 225.14  61.64 222.5  65 222.5  Z " fill-rule="nonzero" fill="#ffffff" stroke="none" />
  <path d="M 65 223  C 68.08 223  70.5 225.42  70.5 228.5  C 70.5 231.58  68.08 234  65 234  C 61.92 234  59.5 231.58  59.5 228.5  C 59.5 225.42  61.92 223  65 223  Z " stroke-width="1" stroke="#02a7f0" fill="none" />
  <path d="M 65 231.5  C 63.32 231.5  62 230.18  62 228.5  C 62 226.82  63.32 225.5  65 225.5  C 66.68 225.5  68 226.82  68 228.5  C 68 230.18  66.68 231.5  65 231.5  " fill-rule="nonzero" fill="#02a7f0" stroke="none" />
</svg>