<?xml version="1.0" encoding="utf-8"?>
<svg version="1.1" xmlns:xlink="http://www.w3.org/1999/xlink" width="12px" height="12px" viewBox="33 423.5  12 12" xmlns="http://www.w3.org/2000/svg">
  <path d="M 39 423.5  C 42.36 423.5  45 426.14  45 429.5  C 45 432.86  42.36 435.5  39 435.5  C 35.64 435.5  33 432.86  33 429.5  C 33 426.14  35.64 423.5  39 423.5  Z " fill-rule="nonzero" fill="#f0f0f0" stroke="none" />
  <path d="M 39 424  C 42.08 424  44.5 426.42  44.5 429.5  C 44.5 432.58  42.08 435  39 435  C 35.92 435  33.5 432.58  33.5 429.5  C 33.5 426.42  35.92 424  39 424  Z " stroke-width="1" stroke="#797979" fill="none" />
  <path d="M 39 432.5  C 37.32 432.5  36 431.18  36 429.5  C 36 427.82  37.32 426.5  39 426.5  C 40.68 426.5  42 427.82  42 429.5  C 42 431.18  40.68 432.5  39 432.5  " fill-rule="nonzero" fill="#797979" stroke="none" />
</svg>