<?xml version="1.0" encoding="utf-8"?>
<svg version="1.1" xmlns:xlink="http://www.w3.org/1999/xlink" width="12px" height="12px" viewBox="88 423.5  12 12" xmlns="http://www.w3.org/2000/svg">
  <path d="M 94 423.5  C 97.36 423.5  100 426.14  100 429.5  C 100 432.86  97.36 435.5  94 435.5  C 90.64 435.5  88 432.86  88 429.5  C 88 426.14  90.64 423.5  94 423.5  Z " fill-rule="nonzero" fill="#ffffff" stroke="none" />
  <path d="M 94 424  C 97.08 424  99.5 426.42  99.5 429.5  C 99.5 432.58  97.08 435  94 435  C 90.92 435  88.5 432.58  88.5 429.5  C 88.5 426.42  90.92 424  94 424  Z " stroke-width="1" stroke="#797979" fill="none" />
  <path d="M 94 432.5  C 92.32 432.5  91 431.18  91 429.5  C 91 427.82  92.32 426.5  94 426.5  C 95.68 426.5  97 427.82  97 429.5  C 97 431.18  95.68 432.5  94 432.5  " fill-rule="nonzero" fill="#797979" stroke="none" />
</svg>