<?xml version="1.0" encoding="utf-8"?>
<svg version="1.1" xmlns:xlink="http://www.w3.org/1999/xlink" width="12px" height="12px" viewBox="147 423.5  12 12" xmlns="http://www.w3.org/2000/svg">
  <path d="M 153 423.5  C 156.36 423.5  159 426.14  159 429.5  C 159 432.86  156.36 435.5  153 435.5  C 149.64 435.5  147 432.86  147 429.5  C 147 426.14  149.64 423.5  153 423.5  Z " fill-rule="nonzero" fill="#f0f0f0" stroke="none" />
  <path d="M 153 424  C 156.08 424  158.5 426.42  158.5 429.5  C 158.5 432.58  156.08 435  153 435  C 149.92 435  147.5 432.58  147.5 429.5  C 147.5 426.42  149.92 424  153 424  Z " stroke-width="1" stroke="#797979" fill="none" />
  <path d="M 153 432.5  C 151.32 432.5  150 431.18  150 429.5  C 150 427.82  151.32 426.5  153 426.5  C 154.68 426.5  156 427.82  156 429.5  C 156 431.18  154.68 432.5  153 432.5  " fill-rule="nonzero" fill="#797979" stroke="none" />
</svg>