<?xml version="1.0" encoding="utf-8"?>
<svg version="1.1" xmlns:xlink="http://www.w3.org/1999/xlink" width="12px" height="12px" viewBox="249 423.5  12 12" xmlns="http://www.w3.org/2000/svg">
  <path d="M 255 423.5  C 258.36 423.5  261 426.14  261 429.5  C 261 432.86  258.36 435.5  255 435.5  C 251.64 435.5  249 432.86  249 429.5  C 249 426.14  251.64 423.5  255 423.5  Z " fill-rule="nonzero" fill="#f0f0f0" stroke="none" />
  <path d="M 255 424  C 258.08 424  260.5 426.42  260.5 429.5  C 260.5 432.58  258.08 435  255 435  C 251.92 435  249.5 432.58  249.5 429.5  C 249.5 426.42  251.92 424  255 424  Z " stroke-width="1" stroke="#797979" fill="none" />
  <path d="M 255 432.5  C 253.32 432.5  252 431.18  252 429.5  C 252 427.82  253.32 426.5  255 426.5  C 256.68 426.5  258 427.82  258 429.5  C 258 431.18  256.68 432.5  255 432.5  " fill-rule="nonzero" fill="#797979" stroke="none" />
</svg>