<?xml version="1.0" encoding="utf-8"?>
<svg version="1.1" xmlns:xlink="http://www.w3.org/1999/xlink" width="17px" height="16px" xmlns="http://www.w3.org/2000/svg">
  <g transform="matrix(1 0 0 1 -210 0 )">
    <path d="M 16.5993265993266 11.959595959595958  C 16.866442199775534 12.210998877665542  17 12.516273849607181  17 12.875420875420875  C 17 13.23456790123457  16.866442199775534 13.539842873176205  16.5993265993266 13.79124579124579  L 14.653198653198652 15.622895622895623  C 14.386083052749722 15.874298540965208  14.061728395061728 16  13.68013468013468 16  C 13.298540965207634 16  12.974186307519641 15.874298540965208  12.707070707070708 15.622895622895623  L 8.5 11.663299663299664  L 4.292929292929293 15.622895622895623  C 4.02581369248036 15.874298540965208  3.7014590347923684 16  3.31986531986532 16  C 2.9382716049382718 16  2.613916947250281 15.874298540965208  2.346801346801347 15.622895622895623  L 0.4006734006734007 13.79124579124579  C 0.13355780022446703 13.539842873176205  0 13.23456790123457  0 12.875420875420875  C 0 12.516273849607181  0.13355780022446703 12.210998877665542  0.4006734006734007 11.959595959595958  L 4.607744107744107 8  L 0.4006734006734007 4.04040404040404  C 0.13355780022446703 3.7890011223344544  0 3.483726150392817  0 3.1245791245791246  C 0 2.765432098765432  0.13355780022446703 2.460157126823791  0.4006734006734007 2.2087542087542094  L 2.346801346801347 0.37710437710437716  C 2.613916947250281 0.1257014590347918  2.9382716049382718 0  3.31986531986532 0  C 3.7014590347923684 0  4.02581369248036 0.1257014590347918  4.292929292929293 0.37710437710437716  L 8.5 4.336700336700337  L 12.707070707070708 0.37710437710437716  C 12.974186307519641 0.1257014590347918  13.298540965207634 0  13.68013468013468 0  C 14.061728395061728 0  14.386083052749722 0.1257014590347918  14.653198653198652 0.37710437710437716  L 16.5993265993266 2.2087542087542094  C 16.866442199775534 2.460157126823791  17 2.765432098765432  17 3.1245791245791246  C 17 3.483726150392817  16.866442199775534 3.7890011223344544  16.5993265993266 4.04040404040404  L 12.392255892255891 8  L 16.5993265993266 11.959595959595958  Z " fill-rule="nonzero" fill="#000000" stroke="none" transform="matrix(1 0 0 1 210 0 )" />
  </g>
</svg>