<?xml version="1.0" encoding="utf-8"?>
<svg version="1.1" xmlns:xlink="http://www.w3.org/1999/xlink" width="52px" height="52px" xmlns="http://www.w3.org/2000/svg">
  <g transform="matrix(1 0 0 1 -31 -107 )">
    <path d="M 57 108  C 71 108  82 119  82 133  C 82 147  71 158  57 158  C 43 158  32 147  32 133  C 32 119  43 108  57 108  Z " fill-rule="nonzero" fill="#ffffff" stroke="none" fill-opacity="0" />
    <path d="M 57 108  C 71 108  82 119  82 133  C 82 147  71 158  57 158  C 43 158  32 147  32 133  C 32 119  43 108  57 108  Z " stroke-width="2" stroke="#000000" fill="none" />
  </g>
</svg>