<?xml version="1.0" encoding="utf-8"?>
<svg version="1.1" xmlns:xlink="http://www.w3.org/1999/xlink" width="12px" height="12px" viewBox="107 474.5  12 12" xmlns="http://www.w3.org/2000/svg">
  <path d="M 113 474.5  C 116.36 474.5  119 477.14  119 480.5  C 119 483.86  116.36 486.5  113 486.5  C 109.64 486.5  107 483.86  107 480.5  C 107 477.14  109.64 474.5  113 474.5  Z " fill-rule="nonzero" fill="#f0f0f0" stroke="none" />
  <path d="M 113 475  C 116.08 475  118.5 477.42  118.5 480.5  C 118.5 483.58  116.08 486  113 486  C 109.92 486  107.5 483.58  107.5 480.5  C 107.5 477.42  109.92 475  113 475  Z " stroke-width="1" stroke="#797979" fill="none" />
  <path d="M 113 483.5  C 111.32 483.5  110 482.18  110 480.5  C 110 478.82  111.32 477.5  113 477.5  C 114.68 477.5  116 478.82  116 480.5  C 116 482.18  114.68 483.5  113 483.5  " fill-rule="nonzero" fill="#797979" stroke="none" />
</svg>