<?xml version="1.0" encoding="utf-8"?>
<svg version="1.1" xmlns:xlink="http://www.w3.org/1999/xlink" width="12px" height="12px" viewBox="222 473.5  12 12" xmlns="http://www.w3.org/2000/svg">
  <path d="M 228 473.5  C 231.36 473.5  234 476.14  234 479.5  C 234 482.86  231.36 485.5  228 485.5  C 224.64 485.5  222 482.86  222 479.5  C 222 476.14  224.64 473.5  228 473.5  Z " fill-rule="nonzero" fill="#ffffff" stroke="none" />
  <path d="M 228 474  C 231.08 474  233.5 476.42  233.5 479.5  C 233.5 482.58  231.08 485  228 485  C 224.92 485  222.5 482.58  222.5 479.5  C 222.5 476.42  224.92 474  228 474  Z " stroke-width="1" stroke="#797979" fill="none" />
  <path d="M 228 482.5  C 226.32 482.5  225 481.18  225 479.5  C 225 477.82  226.32 476.5  228 476.5  C 229.68 476.5  231 477.82  231 479.5  C 231 481.18  229.68 482.5  228 482.5  " fill-rule="nonzero" fill="#797979" stroke="none" />
</svg>