<?xml version="1.0" encoding="utf-8"?>
<svg version="1.1" xmlns:xlink="http://www.w3.org/1999/xlink" width="12px" height="12px" viewBox="262 473.5  12 12" xmlns="http://www.w3.org/2000/svg">
  <path d="M 268 473.5  C 271.36 473.5  274 476.14  274 479.5  C 274 482.86  271.36 485.5  268 485.5  C 264.64 485.5  262 482.86  262 479.5  C 262 476.14  264.64 473.5  268 473.5  Z " fill-rule="nonzero" fill="#ffffff" stroke="none" />
  <path d="M 268 474  C 271.08 474  273.5 476.42  273.5 479.5  C 273.5 482.58  271.08 485  268 485  C 264.92 485  262.5 482.58  262.5 479.5  C 262.5 476.42  264.92 474  268 474  Z " stroke-width="1" stroke="#797979" fill="none" />
  <path d="M 268 482.5  C 266.32 482.5  265 481.18  265 479.5  C 265 477.82  266.32 476.5  268 476.5  C 269.68 476.5  271 477.82  271 479.5  C 271 481.18  269.68 482.5  268 482.5  " fill-rule="nonzero" fill="#797979" stroke="none" />
</svg>