<?xml version="1.0" encoding="utf-8"?>
<svg version="1.1" xmlns:xlink="http://www.w3.org/1999/xlink" width="20px" height="20px" viewBox="164 240  20 20" xmlns="http://www.w3.org/2000/svg">
  <path d="M 174 240  C 179.6 240  184 244.4  184 250  C 184 255.6  179.6 260  174 260  C 168.4 260  164 255.6  164 250  C 164 244.4  168.4 240  174 240  Z " fill-rule="nonzero" fill="#ffffff" stroke="none" />
  <path d="M 174 240.5  C 179.32 240.5  183.5 244.68  183.5 250  C 183.5 255.32  179.32 259.5  174 259.5  C 168.68 259.5  164.5 255.32  164.5 250  C 164.5 244.68  168.68 240.5  174 240.5  Z " stroke-width="1" stroke="#02a7f0" fill="none" />
  <path d="M 174 255  C 171.2 255  169 252.8  169 250  C 169 247.2  171.2 245  174 245  C 176.8 245  179 247.2  179 250  C 179 252.8  176.8 255  174 255  " fill-rule="nonzero" fill="#02a7f0" stroke="none" />
</svg>